<?xml version="1.0" encoding="UTF-8" standalone="no"?>
<!-- Created with Inkscape (http://www.inkscape.org/) -->

<svg
   version="1.1"
   id="svg3559"
   width="800"
   height="800"
   viewBox="0 0 800 800"
   sodipodi:docname="medicine-pills-pdv.svg"
   inkscape:version="1.2 (dc2aedaf03, 2022-05-15)"
   xmlns:inkscape="http://www.inkscape.org/namespaces/inkscape"
   xmlns:sodipodi="http://sodipodi.sourceforge.net/DTD/sodipodi-0.dtd"
   xmlns="http://www.w3.org/2000/svg"
   xmlns:svg="http://www.w3.org/2000/svg">
  <defs
     id="defs3563">
    <clipPath
       clipPathUnits="userSpaceOnUse"
       id="clipPath3575">
      <path
         d="M 0,600 H 600 V 0 H 0 Z"
         id="path3573" />
    </clipPath>
  </defs>
  <sodipodi:namedview
     id="namedview3561"
     pagecolor="#ffffff"
     bordercolor="#000000"
     borderopacity="0.25"
     inkscape:showpageshadow="2"
     inkscape:pageopacity="0.0"
     inkscape:pagecheckerboard="0"
     inkscape:deskcolor="#d1d1d1"
     showgrid="false"
     inkscape:zoom="1.04625"
     inkscape:cx="400"
     inkscape:cy="400.4779"
     inkscape:window-width="1920"
     inkscape:window-height="1017"
     inkscape:window-x="-8"
     inkscape:window-y="-8"
     inkscape:window-maximized="1"
     inkscape:current-layer="g3567">
    <inkscape:page
       x="0"
       y="0"
       id="page3565"
       width="800"
       height="800" />
  </sodipodi:namedview>
  <g
     id="g3567"
     inkscape:groupmode="layer"
     inkscape:label="Page 1"
     transform="matrix(1.3333333,0,0,-1.3333333,0,800)">
    <g
       id="g3569">
      <g
         id="g3571"
         clip-path="url(#clipPath3575)">
        <g
           id="g3577"
           transform="translate(271.5918,265.0771)">
          <path
             d="M 0,0 H -44.345 V 53.358 H 0 V 97.702 H 53.356 V 53.358 H 97.701 V 0 H 53.356 V -44.346 H 0 Z m 144.877,-111.533 c -3.727,5.286 -9.069,10.281 -15.95,14.85 1.015,0.22 1.759,0.393 2.144,0.503 6.711,1.91 11.366,5.423 13.806,10.236 z m -33.845,-54.013 c -21.304,-9.578 -49.255,-15.123 -79.259,-15.781 1.732,0.615 4.038,1.433 6.736,2.389 15.347,5.437 43.915,15.561 47.083,17.017 10.304,4.738 14.641,12.812 12.385,22.885 11.762,-3.286 22.555,-6.252 24.561,-6.626 1.901,-0.355 3.715,-0.531 5.438,-0.531 6.175,0 11.163,2.263 14.68,6.613 -4.405,-9.624 -15.258,-18.608 -31.624,-25.966 M 6.424,-171.539 c -0.167,0.36 -0.33,0.732 -0.484,1.116 -0.93,2.332 -1.344,4.799 -1.251,7.28 1.977,2.113 3.573,4.804 4.736,8.066 0.379,1.061 0.644,2.139 0.84,3.221 0.007,0.023 0.017,0.045 0.025,0.07 0.252,0.733 0.433,1.455 0.551,2.165 2.048,2.025 4.465,3.582 7.043,4.468 4.609,1.578 14.729,5.156 25.319,8.905 l 0.503,-0.06 c 1.026,-0.123 2.059,-0.459 3.08,-0.988 l 2.362,0.681 17.288,4.991 3.96,1.116 1.993,0.549 1.018,0.274 c 0.382,0.096 0.767,0.197 1.131,0.247 2.953,0.517 6.003,0.096 8.663,-1.028 5.341,-2.273 9.189,-7.141 10.377,-12.479 -1.768,5.177 -6.042,9.299 -10.994,10.769 -2.47,0.73 -5.08,0.775 -7.459,0.074 -0.31,-0.072 -0.572,-0.194 -0.84,-0.303 l -0.918,-0.391 -1.87,-0.809 -3.751,-1.648 -13.805,-6.168 -1.689,-0.754 c 1.011,-1.318 1.973,-2.829 2.856,-4.527 2.564,-4.917 4.122,-10.616 4.455,-15.419 -22.527,-7.599 -38.346,-16.136 -53.139,-9.418 m -66.028,5.993 c -21.825,9.812 -33.844,22.516 -33.844,35.771 0,0.579 0.029,1.206 0.092,1.917 l 0.562,6.421 c 3.144,8.429 11.03,16.404 23.084,23.307 1.029,-1.451 2.209,-2.783 3.494,-3.955 1.372,-1.251 3.549,-3.241 6.213,-5.679 2.119,-1.936 4.561,-4.171 7.158,-6.544 -2.403,0.752 -4.424,1.389 -5.879,1.856 -5.329,1.708 -11.685,0.994 -16.998,-1.908 -5.018,-2.744 -8.559,-7.173 -9.971,-12.472 -3.34,-12.54 5.206,-21.346 14.561,-24.22 1.799,-0.553 4.674,-1.441 8.193,-2.529 15.562,-4.811 44.526,-13.766 47.939,-14.491 2.118,-0.45 4.136,-0.674 6.042,-0.674 4.662,0 8.652,1.346 11.855,3.939 0.108,-2.142 0.558,-4.259 1.368,-6.286 1.957,-4.898 5.124,-8.119 8.809,-10.005 -27.496,1.271 -52.941,6.678 -72.678,15.552 m 0.689,436.428 v 1.929 c 0,1.424 4.339,6.453 23.618,10.723 15.973,3.538 38.209,5.567 61.011,5.567 22.801,0 45.039,-2.029 61.012,-5.567 19.278,-4.27 23.617,-9.299 23.617,-10.723 v -1.929 c -2.113,-2.555 -8.39,-6.247 -22.858,-9.503 -16.469,-3.707 -38.407,-5.749 -61.771,-5.749 -23.365,0 -45.302,2.042 -61.77,5.749 -14.47,3.256 -20.746,6.948 -22.859,9.503 m 1.791,-65.845 v -2.389 c -1.515,1.282 -1.742,2.115 -1.759,2.186 l -0.032,0.134 v 59.079 c 0.567,-0.368 1.156,-0.73 1.791,-1.082 z m 167.467,-0.006 -0.011,-0.094 c -0.048,-0.416 -0.528,-1.229 -1.781,-2.275 v 2.375 57.928 c 0.637,0.352 1.225,0.714 1.792,1.082 z M 125.29,-65.11 c -0.316,-0.025 -0.595,-0.106 -0.875,-0.173 l -0.968,-0.245 -1.972,-0.513 -3.959,-1.055 -14.586,-3.982 -1.784,-0.488 c 0.796,-1.456 1.516,-3.097 2.13,-4.909 1.781,-5.252 2.449,-11.124 2.042,-15.92 -13.596,-2.359 -25.007,-5.371 -34.846,-5.747 -0.184,0.483 -0.367,0.966 -0.583,1.455 -0.456,1.03 -1.005,1.994 -1.609,2.912 -0.01,0.023 -0.018,0.047 -0.03,0.07 -0.526,1.149 -1.172,2.142 -1.899,3.008 0.493,1.564 0.856,3.242 1.049,5.06 0.119,1.12 0.125,2.229 0.061,3.324 0.004,0.026 0.008,0.051 0.01,0.078 0.393,4.195 -1.157,7.57 -3.383,10.205 0.991,0.394 1.988,0.687 2.981,0.864 5.249,0.938 17.168,3.188 29.137,5.449 0.096,-0.065 0.19,-0.123 0.285,-0.191 l 2.438,0.312 17.849,2.287 4.084,0.497 2.052,0.238 1.049,0.114 c 0.392,0.037 0.787,0.077 1.155,0.07 2.997,0.061 5.948,-0.822 8.404,-2.339 4.93,-3.066 7.988,-8.464 8.345,-13.92 -0.954,5.385 -4.548,10.112 -9.217,12.324 -2.329,1.099 -4.902,1.542 -7.36,1.215 m 8.545,-42.073 c -1.915,0.596 -12.313,3.535 -23.72,6.754 4.086,0.788 7.94,1.539 11.212,2.188 4.911,-2.827 9.121,-5.833 12.597,-8.976 -0.029,0.01 -0.059,0.024 -0.089,0.034 M 63.049,-96.98 c 1.667,-1.792 2.957,-3.901 3.751,-6.16 -1.029,2.14 -2.504,4.024 -4.258,5.544 0.176,0.199 0.339,0.41 0.507,0.616 m -6.175,-28.225 c 1.27,-1.092 2.665,-2.035 4.134,-2.825 -4.011,-1.416 -8.689,-3.073 -13.476,-4.769 -6.894,-2.442 -13.922,-4.931 -19.696,-6.966 10.636,5.278 22.667,11.274 29.038,14.56 m -125.609,44.819 c 0.594,1.315 1.418,2.655 2.554,3.997 2.868,3.399 7.022,5.422 11.695,5.699 5.039,0.302 10.054,-1.396 13.407,-4.527 1.474,-1.375 3.703,-3.431 6.387,-5.899 l 3.247,-3.178 c 0.267,-1.757 0.747,-3.373 1.41,-4.842 2.847,-6.319 8.981,-9.987 15.325,-11.129 l 9.726,-10.021 2.846,-2.971 1.421,-1.499 0.721,-0.771 c 0.265,-0.292 0.535,-0.584 0.749,-0.883 1.845,-2.362 2.909,-5.253 3.166,-8.129 0.249,-2.842 -0.23,-5.659 -1.27,-8.213 -0.263,0.196 -0.536,0.377 -0.807,0.56 0.65,2.443 0.767,4.992 0.279,7.395 -0.519,2.523 -1.707,4.848 -3.443,6.618 -0.207,0.24 -0.44,0.413 -0.663,0.598 l -0.774,0.627 -1.595,1.271 -3.218,2.536 -11.934,9.284 -1.447,1.126 c -0.689,-1.498 -1.573,-3.049 -2.663,-4.637 -3.135,-4.575 -7.434,-8.63 -11.516,-11.183 -15.3,14.426 -32.28,27.008 -33.603,38.171 m 27.645,286.992 v -1.569 -9.411 l -2.681,0.863 v 8.548 52.757 c 0.874,-0.247 1.767,-0.488 2.681,-0.722 z m 136.288,-1.569 v -8.548 l -2.68,-0.863 v 9.411 1.569 50.466 c 0.914,0.234 1.807,0.475 2.68,0.722 z M -47.228,155.146 c 2.906,2.296 5.51,4.352 7.645,6.403 15.876,-8.13 43.712,-11.073 65.297,-11.073 21.565,0 49.53,2.952 65.409,11.128 2.73,-1.984 6.374,-4.323 9.371,-6.246 5.311,-3.408 11.33,-7.272 15.516,-10.769 19.717,-16.467 25.117,-32.706 25.117,-75.538 V -57.14 c -0.606,0.382 -1.242,0.744 -1.91,1.085 -3.594,2.139 -7.69,3.291 -11.863,3.339 h -0.013 c -0.26,0.013 -0.539,0.01 -0.916,-0.017 -1.103,-0.031 -2.081,-0.117 -2.986,-0.263 -2.087,-0.337 -12.864,-2.372 -25.342,-4.729 l -0.945,-0.179 c -12.116,-2.291 -25.848,-4.887 -31.4,-5.878 -1.302,-0.233 -2.6,-0.587 -3.879,-1.061 -2.173,1.616 -4.613,2.854 -7.191,3.646 l -0.412,0.41 h -1.136 c -0.028,0.006 -0.054,0.011 -0.081,0.016 -1.083,0.251 -2.083,0.416 -3.06,0.504 -2.043,0.183 -12.345,0.841 -26.674,1.75 -12.913,0.818 -26.266,1.664 -31.895,2.079 -6.593,0.463 -13.65,-2.076 -18.863,-6.805 -2.744,-2.489 -4.831,-5.423 -6.185,-8.658 -0.907,0.838 -1.694,1.567 -2.336,2.168 -4.826,4.505 -11.916,6.947 -18.967,6.53 -6.746,-0.398 -12.778,-3.363 -16.986,-8.346 -4.979,-5.897 -6.679,-13.122 -4.862,-20.221 -4.975,-3.054 -9.294,-6.318 -12.923,-9.766 V 69.051 c 0,31.988 3.203,46.233 22.162,67.545 7.509,8.441 14.902,14.282 20.308,18.55 m 139.222,19.108 -3.6,-3.852 c -9.896,-5.608 -32.003,-10.841 -62.68,-10.841 -30.81,0 -52.971,5.278 -62.803,10.915 l -3.526,3.83 c -1.257,1.365 -1.257,2.17 -1.257,2.436 0,0.186 0.035,0.448 0.158,0.781 12.303,-8.449 40.494,-12.923 67.428,-12.923 26.932,0 55.126,4.474 67.429,12.923 0.122,-0.333 0.156,-0.595 0.156,-0.781 0,-0.271 0,-1.094 -1.305,-2.488 M 12.592,-102.147 c -4.368,-2.161 -8.566,-4.236 -12.198,-6.026 -2.134,1.964 -4.889,4.49 -7.951,7.292 1.22,-0.077 2.57,-0.161 4.039,-0.255 4.569,-0.288 10.238,-0.647 16.11,-1.011 m 16.458,-9.297 c 3.131,-4.577 5.355,-10.052 6.257,-14.782 -0.485,-0.232 -0.963,-0.463 -1.443,-0.695 -2.557,9.491 -6.584,15.157 -10.088,18.491 -2.158,2.053 -4.117,3.224 -5.412,3.848 -0.363,0.176 -0.723,0.333 -1.08,0.475 -1.037,0.41 -2.042,0.671 -2.979,0.793 0.558,0.276 1.118,0.553 1.681,0.831 h 0.508 c 1.05,0 2.121,-0.205 3.197,-0.605 l 1.04,0.44 c 4.053,-0.246 8,-0.481 11.559,-0.684 l -5.027,-3.01 -1.574,-0.941 c 1.147,-1.186 2.273,-2.571 3.361,-4.161 m -12.032,45.79 c 0.593,-0.598 1.168,-1.286 1.696,-2.071 0.699,-1.042 1.631,-2.715 2.396,-5.061 1.452,-4.461 2.287,-11.365 -0.257,-21.032 -21.891,1.582 -38.679,0.501 -49.434,10.761 l 0.798,4.328 c 0.534,3.786 2.395,7.219 5.384,9.931 3.726,3.382 8.695,5.205 13.281,4.878 4.805,-0.353 15.175,-1.018 26.112,-1.713 0.008,-0.007 0.017,-0.014 0.024,-0.021 m 83.516,263.992 v 6.699 54.436 c 0.928,0.325 1.823,0.657 2.682,1 v -55.436 -5.562 c -0.807,-0.373 -1.698,-0.754 -2.682,-1.137 M 84.5,192.965 v 12.072 5.544 44.682 c 0.908,0.18 1.802,0.365 2.681,0.555 v -46.36 -4.421 -11.497 c -0.879,-0.196 -1.771,-0.388 -2.681,-0.575 m -8.018,-1.456 v 13.528 2.643 5.525 40.647 c 0.906,0.141 1.799,0.286 2.682,0.435 v -41.864 -5.581 -1.805 -13.077 c -0.883,-0.154 -1.774,-0.304 -2.682,-0.451 m -8.015,-1.148 v 14.676 4.678 5.408 37.617 c 0.901,0.111 1.794,0.226 2.681,0.343 v -38.54 -5.438 -4.068 -14.325 c -0.883,-0.122 -1.781,-0.237 -2.681,-0.351 m -8.017,-0.894 v 15.57 6.181 5.344 35.312 c 0.899,0.084 1.793,0.172 2.682,0.264 v -36.012 -5.36 -5.729 -15.303 c -0.885,-0.094 -1.785,-0.18 -2.682,-0.267 m -8.016,-0.676 v 16.246 7.274 5.32 33.583 c 0.896,0.063 1.791,0.129 2.68,0.199 v -34.103 -5.325 -6.948 -16.048 c -0.886,-0.07 -1.784,-0.134 -2.68,-0.198 m -8.018,-0.482 v 16.728 8.042 5.31 32.352 c 0.897,0.043 1.79,0.089 2.681,0.138 v -32.71 -5.314 -7.818 -16.593 c -0.888,-0.049 -1.786,-0.091 -2.681,-0.135 m -8.018,-0.303 v 17.031 8.508 5.325 31.57 c 0.896,0.024 1.79,0.053 2.682,0.083 v -31.784 -5.323 -8.379 -16.951 c -0.89,-0.032 -1.786,-0.056 -2.682,-0.08 m -8.016,-0.135 v 17.166 8.711 5.339 31.218 c 0.894,0.007 1.788,0.015 2.682,0.028 v -31.289 -5.336 -8.671 -17.14 c -0.891,-0.013 -1.787,-0.02 -2.682,-0.026 m -8.017,0.026 v 17.14 8.671 5.336 31.289 c 0.894,-0.013 1.787,-0.021 2.681,-0.028 v -31.218 -5.339 -8.711 -17.166 c -0.895,0.006 -1.791,0.013 -2.681,0.026 m -8.018,0.189 v 16.951 8.379 5.323 31.784 c 0.894,-0.03 1.787,-0.059 2.683,-0.083 v -31.57 -5.325 -8.508 -17.031 c -0.896,0.024 -1.793,0.048 -2.683,0.08 m -8.016,0.358 v 16.593 7.818 5.314 32.71 c 0.891,-0.049 1.785,-0.095 2.681,-0.138 v -32.352 -5.31 -8.042 -16.728 c -0.895,0.044 -1.794,0.086 -2.681,0.135 m -8.017,0.545 v 16.048 6.948 5.325 34.103 c 0.89,-0.07 1.785,-0.136 2.682,-0.199 v -33.583 -5.32 -7.274 -16.246 c -0.897,0.064 -1.796,0.128 -2.682,0.198 m -8.017,0.745 v 15.303 5.729 5.36 36.012 c 0.888,-0.092 1.782,-0.18 2.681,-0.264 v -35.312 -5.344 -6.181 -15.57 c -0.897,0.087 -1.796,0.173 -2.681,0.267 m -8.018,0.978 v 14.325 4.068 5.438 38.54 c 0.888,-0.117 1.782,-0.232 2.683,-0.343 v -37.617 -5.408 -4.678 -14.676 c -0.901,0.114 -1.798,0.229 -2.683,0.351 m -8.014,1.248 v 13.077 1.805 5.581 41.864 c 0.882,-0.149 1.775,-0.294 2.679,-0.435 v -40.647 -5.525 -2.643 -13.528 c -0.905,0.147 -1.798,0.297 -2.679,0.451 m 53.449,-9.439 c 19.284,0 38.667,1.411 54.55,4.182 -11.767,-4.085 -30.53,-7.294 -54.55,-7.294 -24.019,0 -42.783,3.209 -54.55,7.294 15.883,-2.771 35.265,-4.182 54.55,-4.182 m -61.468,11.019 v 11.497 4.421 46.36 c 0.881,-0.19 1.773,-0.375 2.682,-0.555 v -44.682 -5.544 -12.072 c -0.909,0.187 -1.802,0.379 -2.682,0.575 m 61.468,-19.467 c 27.048,0 55.365,4.513 67.585,13.032 -0.002,-0.325 -0.07,-0.847 -0.618,-1.641 l -2.439,-3.533 c -8.77,-6.024 -31.757,-11.995 -64.528,-11.995 -32.771,0 -55.757,5.971 -64.528,11.995 l -2.438,3.533 c -0.55,0.794 -0.618,1.316 -0.618,1.641 12.219,-8.519 40.537,-13.032 67.584,-13.032 m -77.501,25.389 v 5.575 55.436 c 0.859,-0.343 1.752,-0.675 2.681,-1 v -54.436 -6.706 c -0.99,0.386 -1.881,0.763 -2.681,1.131 M 0.361,-142.424 c -1.545,2.061 -3.611,3.656 -5.938,4.517 -0.29,0.127 -0.574,0.185 -0.854,0.258 l -0.969,0.235 -1.984,0.469 -3.992,0.92 -14.755,3.302 -1.806,0.405 c 0.024,-1.661 -0.107,-3.448 -0.414,-5.337 -0.881,-5.474 -3.038,-10.976 -5.641,-15.025 -22.603,7.367 -40.388,9.973 -48.237,24.199 0.081,0.389 0.174,0.784 0.281,1.183 1.281,4.819 4.511,8.85 9.093,11.354 4.885,2.67 10.712,3.333 15.58,1.773 4.64,-1.488 14.895,-4.667 25.623,-7.986 l 0.368,-0.35 c 0.749,-0.713 1.377,-1.598 1.879,-2.634 l 2.301,-0.864 16.847,-6.329 3.842,-1.471 1.926,-0.749 0.979,-0.39 c 0.365,-0.151 0.733,-0.299 1.055,-0.478 2.677,-1.348 4.87,-3.51 6.332,-6.001 2.924,-5.013 3.101,-11.217 0.864,-16.206 1.676,5.207 0.713,11.067 -2.38,15.205 m 10.193,18.045 c -0.362,3.532 -1.67,6.903 -3.735,9.733 -0.068,0.11 -0.108,0.173 -0.113,0.182 -0.066,0.098 -0.187,0.243 -0.343,0.417 -0.529,0.671 -1.088,1.321 -1.705,1.915 -0.425,0.411 -1.43,1.348 -2.84,2.648 3.444,1.697 7.361,3.634 11.426,5.645 0.973,-0.011 2.073,-0.227 3.215,-0.617 0.541,-0.186 1.091,-0.4 1.644,-0.668 1.233,-0.595 3.088,-1.699 5.139,-3.624 3.477,-3.264 7.518,-8.894 10.071,-18.438 -9.388,-4.558 -17.475,-9.043 -24.934,-12.097 -0.187,0.291 -0.381,0.573 -0.578,0.85 -0.204,0.337 -0.431,0.657 -0.653,0.979 3.777,3.925 4.166,8.814 3.406,13.075 m 45.068,48.918 c -1.983,1.641 -4.367,2.707 -6.83,2.997 -0.313,0.057 -0.603,0.047 -0.892,0.052 l -0.998,0.002 -2.039,-0.011 -4.095,-0.042 -15.118,-0.249 -1.834,-0.03 c 0.402,-1.599 0.686,-3.361 0.834,-5.281 0.425,-5.531 -0.38,-11.384 -1.961,-15.933 -0.413,0.032 -0.818,0.062 -1.227,0.092 2.511,9.615 1.715,16.548 0.273,21.089 -0.796,2.507 -1.786,4.289 -2.521,5.385 -0.399,0.594 -0.82,1.128 -1.257,1.62 -0.025,0.029 -0.051,0.053 -0.076,0.082 0.866,-0.055 1.734,-0.111 2.603,-0.166 0.077,-0.086 0.157,-0.166 0.232,-0.257 l 2.414,-0.298 17.86,-2.203 4.079,-0.528 2.048,-0.278 1.044,-0.148 c 0.391,-0.062 0.783,-0.119 1.138,-0.219 2.918,-0.683 5.558,-2.269 7.562,-4.347 4.019,-4.188 5.645,-10.176 4.641,-15.551 0.408,5.454 -1.903,10.923 -5.88,14.222 m 81.635,-44.179 c -1.595,2.022 -3.7,3.565 -6.048,4.368 -0.294,0.12 -0.579,0.171 -0.861,0.236 l -0.974,0.212 -1.996,0.42 -4.013,0.819 -14.833,2.935 -1.799,0.354 c 0.056,-1.646 -0.036,-3.429 -0.295,-5.338 -0.747,-5.495 -2.765,-11.049 -5.267,-15.164 -2.834,0.847 -5.589,1.619 -8.261,2.354 -1.928,1.916 -4.339,3.139 -6.746,3.916 -3.285,1.337 -6.87,1.763 -10.334,1.272 -0.125,-0.009 -0.199,-0.013 -0.21,-0.014 -0.107,-0.012 -0.277,-0.046 -0.477,-0.094 -3.45,1.136 -6.634,2.365 -9.524,3.803 3.754,3.436 5.881,7.468 6.307,11.927 0.527,0.066 1.054,0.142 1.571,0.241 1.816,0.345 4.695,0.89 8.221,1.558 3.044,0.574 6.584,1.244 10.346,1.958 3.149,0.598 6.453,1.226 9.753,1.856 0.753,0.145 1.508,0.289 2.259,0.432 0.379,-0.476 0.72,-0.998 1.02,-1.571 l 2.298,-0.799 16.998,-5.908 3.877,-1.374 1.943,-0.701 0.99,-0.366 c 0.368,-0.142 0.74,-0.282 1.066,-0.453 2.71,-1.281 4.958,-3.386 6.48,-5.839 3.048,-4.94 3.379,-11.136 1.268,-16.18 1.544,5.246 0.435,11.08 -2.759,15.14 m -10.862,276.663 c -4.962,4.146 -11.437,8.301 -17.168,11.981 -1.362,0.874 -2.877,1.845 -4.345,2.81 0.573,1.598 0.867,3.251 0.867,4.928 0,1.781 -0.318,3.515 -0.951,5.186 0.619,1.638 0.937,3.336 0.95,5.079 7.567,3.049 12.566,6.685 15.095,10.988 l 1.95,2.815 v 72.001 c 0,10.42 -10.917,17.903 -33.375,22.878 -17.065,3.78 -39.69,5.861 -63.704,5.861 -24.015,0 -46.639,-2.081 -63.704,-5.861 -22.458,-4.975 -33.375,-12.458 -33.375,-22.878 v -71.604 l 2.487,-4.027 c 2.67,-3.955 7.491,-7.322 14.558,-10.172 0.013,-1.744 0.33,-3.442 0.949,-5.08 -0.631,-1.671 -0.949,-3.405 -0.949,-5.186 0,-1.917 0.383,-3.803 1.13,-5.611 -1.234,-1.025 -2.643,-2.138 -4.089,-3.28 -5.869,-4.636 -13.907,-10.984 -22.36,-20.487 -22.468,-25.256 -26.26,-44.571 -26.26,-78.313 V -133.54 h 0.206 c 1.854,-16.953 16.242,-32.237 40.984,-43.361 24.301,-10.926 56.414,-16.943 90.423,-16.943 34.008,0 66.123,6.017 90.423,16.943 24.743,11.124 39.131,26.408 40.984,43.361 h 0.205 V 69.051 c 0,47.618 -7.226,68.174 -30.931,87.972"
             style="fill:#000000;fill-opacity:1;fill-rule:nonzero;stroke:none"
             id="path3579" />
        </g>
      </g>
    </g>
  </g>
</svg>
